<svg width="30" height="30" viewBox="0 0 30 30" fill="none" xmlns="http://www.w3.org/2000/svg">
<circle cx="15" cy="15" r="13.5" stroke="#008615" stroke-width="3"/>
<path d="M16 5.5C16 4.94772 15.5523 4.5 15 4.5C14.4477 4.5 14 4.94772 14 5.5H16ZM14 5.5V14H16V5.5H14Z" fill="#008615"/>
<path d="M24.5 16C25.0523 16 25.5 15.5523 25.5 15C25.5 14.4477 25.0523 14 24.5 14L24.5 16ZM24.5 14L16 14L16 16L24.5 16L24.5 14Z" fill="#008615"/>
<path d="M16 15C16 15.5523 15.5523 16 15 16C14.4477 16 14 15.5523 14 15C14 14.4477 14.4477 14 15 14C15.5523 14 16 14.4477 16 15Z" fill="#008615" stroke="#008615"/>
</svg>
